<svg xmlns="http://www.w3.org/2000/svg" xmlns:xlink="http://www.w3.org/1999/xlink" width="1080" zoomAndPan="magnify" viewBox="0 0 810 809.999993" height="1080" preserveAspectRatio="xMidYMid meet" version="1.0"><defs><clipPath id="6ad7b972f8"><path d="M 320.65625 30.304688 L 489.496094 30.304688 L 489.496094 195.273438 L 320.65625 195.273438 Z M 320.65625 30.304688 " clip-rule="nonzero"/></clipPath><clipPath id="a03cad0ce8"><path d="M 343.15625 30.304688 L 466.84375 30.304688 C 479.269531 30.304688 489.34375 40.375 489.34375 52.804688 L 489.34375 172.773438 C 489.34375 185.203125 479.269531 195.273438 466.84375 195.273438 L 343.15625 195.273438 C 330.730469 195.273438 320.65625 185.203125 320.65625 172.773438 L 320.65625 52.804688 C 320.65625 40.375 330.730469 30.304688 343.15625 30.304688 Z M 343.15625 30.304688 " clip-rule="nonzero"/></clipPath><clipPath id="6d242a507a"><path d="M 320.65625 228.082031 L 489.496094 228.082031 L 489.496094 393.054688 L 320.65625 393.054688 Z M 320.65625 228.082031 " clip-rule="nonzero"/></clipPath><clipPath id="c34dc11394"><path d="M 343.15625 228.082031 L 466.84375 228.082031 C 479.269531 228.082031 489.34375 238.15625 489.34375 250.582031 L 489.34375 370.554688 C 489.34375 382.980469 479.269531 393.054688 466.84375 393.054688 L 343.15625 393.054688 C 330.730469 393.054688 320.65625 382.980469 320.65625 370.554688 L 320.65625 250.582031 C 320.65625 238.15625 330.730469 228.082031 343.15625 228.082031 Z M 343.15625 228.082031 " clip-rule="nonzero"/></clipPath><clipPath id="ec89cf871e"><path d="M 320.65625 426.054688 L 489.496094 426.054688 L 489.496094 591.027344 L 320.65625 591.027344 Z M 320.65625 426.054688 " clip-rule="nonzero"/></clipPath><clipPath id="81622921c0"><path d="M 343.15625 426.054688 L 466.84375 426.054688 C 479.269531 426.054688 489.34375 436.128906 489.34375 448.554688 L 489.34375 568.527344 C 489.34375 580.953125 479.269531 591.027344 466.84375 591.027344 L 343.15625 591.027344 C 330.730469 591.027344 320.65625 580.953125 320.65625 568.527344 L 320.65625 448.554688 C 320.65625 436.128906 330.730469 426.054688 343.15625 426.054688 Z M 343.15625 426.054688 " clip-rule="nonzero"/></clipPath><clipPath id="89ce68f85d"><path d="M 320.65625 624.027344 L 489.496094 624.027344 L 489.496094 789 L 320.65625 789 Z M 320.65625 624.027344 " clip-rule="nonzero"/></clipPath><clipPath id="4976d51917"><path d="M 343.15625 624.027344 L 466.84375 624.027344 C 479.269531 624.027344 489.34375 634.101562 489.34375 646.527344 L 489.34375 766.5 C 489.34375 778.925781 479.269531 789 466.84375 789 L 343.15625 789 C 330.730469 789 320.65625 778.925781 320.65625 766.5 L 320.65625 646.527344 C 320.65625 634.101562 330.730469 624.027344 343.15625 624.027344 Z M 343.15625 624.027344 " clip-rule="nonzero"/></clipPath><clipPath id="286b2f9bb1"><path d="M 117.152344 228.082031 L 285.992188 228.082031 L 285.992188 393.054688 L 117.152344 393.054688 Z M 117.152344 228.082031 " clip-rule="nonzero"/></clipPath><clipPath id="92bc9edc0f"><path d="M 139.652344 228.082031 L 263.339844 228.082031 C 275.765625 228.082031 285.839844 238.15625 285.839844 250.582031 L 285.839844 370.554688 C 285.839844 382.980469 275.765625 393.054688 263.339844 393.054688 L 139.652344 393.054688 C 127.226562 393.054688 117.152344 382.980469 117.152344 370.554688 L 117.152344 250.582031 C 117.152344 238.15625 127.226562 228.082031 139.652344 228.082031 Z M 139.652344 228.082031 " clip-rule="nonzero"/></clipPath><clipPath id="991c6206f6"><path d="M 117.152344 426.054688 L 285.992188 426.054688 L 285.992188 591.027344 L 117.152344 591.027344 Z M 117.152344 426.054688 " clip-rule="nonzero"/></clipPath><clipPath id="a365c88c04"><path d="M 139.652344 426.054688 L 263.339844 426.054688 C 275.765625 426.054688 285.839844 436.128906 285.839844 448.554688 L 285.839844 568.527344 C 285.839844 580.953125 275.765625 591.027344 263.339844 591.027344 L 139.652344 591.027344 C 127.226562 591.027344 117.152344 580.953125 117.152344 568.527344 L 117.152344 448.554688 C 117.152344 436.128906 127.226562 426.054688 139.652344 426.054688 Z M 139.652344 426.054688 " clip-rule="nonzero"/></clipPath><clipPath id="30fa435fa7"><path d="M 117.152344 624.027344 L 285.992188 624.027344 L 285.992188 789 L 117.152344 789 Z M 117.152344 624.027344 " clip-rule="nonzero"/></clipPath><clipPath id="13d01bac67"><path d="M 139.652344 624.027344 L 263.339844 624.027344 C 275.765625 624.027344 285.839844 634.101562 285.839844 646.527344 L 285.839844 766.5 C 285.839844 778.925781 275.765625 789 263.339844 789 L 139.652344 789 C 127.226562 789 117.152344 778.925781 117.152344 766.5 L 117.152344 646.527344 C 117.152344 634.101562 127.226562 624.027344 139.652344 624.027344 Z M 139.652344 624.027344 " clip-rule="nonzero"/></clipPath><clipPath id="253da29ae1"><path d="M 523.84375 426.054688 L 692.683594 426.054688 L 692.683594 591.027344 L 523.84375 591.027344 Z M 523.84375 426.054688 " clip-rule="nonzero"/></clipPath><clipPath id="1116e530cb"><path d="M 546.34375 426.054688 L 670.03125 426.054688 C 682.457031 426.054688 692.53125 436.128906 692.53125 448.554688 L 692.53125 568.527344 C 692.53125 580.953125 682.457031 591.027344 670.03125 591.027344 L 546.34375 591.027344 C 533.917969 591.027344 523.84375 580.953125 523.84375 568.527344 L 523.84375 448.554688 C 523.84375 436.128906 533.917969 426.054688 546.34375 426.054688 Z M 546.34375 426.054688 " clip-rule="nonzero"/></clipPath><clipPath id="bd4edd1ef3"><path d="M 523.84375 30.304688 L 692.683594 30.304688 L 692.683594 195.273438 L 523.84375 195.273438 Z M 523.84375 30.304688 " clip-rule="nonzero"/></clipPath><clipPath id="713c8d8d4b"><path d="M 546.34375 30.304688 L 670.03125 30.304688 C 682.457031 30.304688 692.53125 40.375 692.53125 52.804688 L 692.53125 172.773438 C 692.53125 185.203125 682.457031 195.273438 670.03125 195.273438 L 546.34375 195.273438 C 533.917969 195.273438 523.84375 185.203125 523.84375 172.773438 L 523.84375 52.804688 C 523.84375 40.375 533.917969 30.304688 546.34375 30.304688 Z M 546.34375 30.304688 " clip-rule="nonzero"/></clipPath><clipPath id="3f84b060b8"><path d="M 117.152344 30.109375 L 282.125 30.109375 L 282.125 195.082031 L 117.152344 195.082031 Z M 117.152344 30.109375 " clip-rule="nonzero"/></clipPath><clipPath id="510550a88e"><path d="M 199.636719 30.109375 C 154.082031 30.109375 117.152344 67.039062 117.152344 112.597656 C 117.152344 158.152344 154.082031 195.082031 199.636719 195.082031 C 245.195312 195.082031 282.125 158.152344 282.125 112.597656 C 282.125 67.039062 245.195312 30.109375 199.636719 30.109375 Z M 199.636719 30.109375 " clip-rule="nonzero"/></clipPath></defs><g clip-path="url(#6ad7b972f8)"><g clip-path="url(#a03cad0ce8)"><path fill="#3c9a36" d="M 320.65625 30.304688 L 489.496094 30.304688 L 489.496094 195.273438 L 320.65625 195.273438 Z M 320.65625 30.304688 " fill-opacity="1" fill-rule="nonzero"/></g></g><g clip-path="url(#6d242a507a)"><g clip-path="url(#c34dc11394)"><path fill="#3c9a36" d="M 320.65625 228.082031 L 489.496094 228.082031 L 489.496094 393.054688 L 320.65625 393.054688 Z M 320.65625 228.082031 " fill-opacity="1" fill-rule="nonzero"/></g></g><g clip-path="url(#ec89cf871e)"><g clip-path="url(#81622921c0)"><path fill="#3c9a36" d="M 320.65625 426.054688 L 489.496094 426.054688 L 489.496094 591.027344 L 320.65625 591.027344 Z M 320.65625 426.054688 " fill-opacity="1" fill-rule="nonzero"/></g></g><g clip-path="url(#89ce68f85d)"><g clip-path="url(#4976d51917)"><path fill="#3c9a36" d="M 320.65625 624.027344 L 489.496094 624.027344 L 489.496094 789 L 320.65625 789 Z M 320.65625 624.027344 " fill-opacity="1" fill-rule="nonzero"/></g></g><g clip-path="url(#286b2f9bb1)"><g clip-path="url(#92bc9edc0f)"><path fill="#3c9a36" d="M 117.152344 228.082031 L 285.992188 228.082031 L 285.992188 393.054688 L 117.152344 393.054688 Z M 117.152344 228.082031 " fill-opacity="1" fill-rule="nonzero"/></g></g><g clip-path="url(#991c6206f6)"><g clip-path="url(#a365c88c04)"><path fill="#3c9a36" d="M 117.152344 426.054688 L 285.992188 426.054688 L 285.992188 591.027344 L 117.152344 591.027344 Z M 117.152344 426.054688 " fill-opacity="1" fill-rule="nonzero"/></g></g><g clip-path="url(#30fa435fa7)"><g clip-path="url(#13d01bac67)"><path fill="#3c9a36" d="M 117.152344 624.027344 L 285.992188 624.027344 L 285.992188 789 L 117.152344 789 Z M 117.152344 624.027344 " fill-opacity="1" fill-rule="nonzero"/></g></g><g clip-path="url(#253da29ae1)"><g clip-path="url(#1116e530cb)"><path fill="#3c9a36" d="M 523.84375 426.054688 L 692.683594 426.054688 L 692.683594 591.027344 L 523.84375 591.027344 Z M 523.84375 426.054688 " fill-opacity="1" fill-rule="nonzero"/></g></g><g clip-path="url(#bd4edd1ef3)"><g clip-path="url(#713c8d8d4b)"><path fill="#3c9a36" d="M 523.84375 30.304688 L 692.683594 30.304688 L 692.683594 195.273438 L 523.84375 195.273438 Z M 523.84375 30.304688 " fill-opacity="1" fill-rule="nonzero"/></g></g><g clip-path="url(#3f84b060b8)"><g clip-path="url(#510550a88e)"><path fill="#bd0c0c" d="M 117.152344 30.109375 L 282.125 30.109375 L 282.125 195.082031 L 117.152344 195.082031 Z M 117.152344 30.109375 " fill-opacity="1" fill-rule="nonzero"/></g></g></svg>